The Last Airbender (2010) 720P MKV AC3+DTS Eng-NLSubs-DMT

Verenigde Staten
Avontuur / Fantasy
103 minuten

geregisseerd door M. Night Shyamalan
met Noah Ringer, Nicola Peltz en Dev Patel

In een mystieke wereld leven verschillende stammen die één van de vier elementen beheersen: water, aarde, lucht en vuur.
De enige persoon die alle vier elementen beheerst is de Avatar. Tijdens een aanval van de Vuurnatie verdwijnt de Avatar plotseling.
100 jaar later ontdekken twee kinderen (Katara en Sokka van de Waterstam) een jongen genaamd Aang die zit vastgevroren in een rots.
Hij blijkt de nieuwe Avatar te zijn en hij moet het evenwicht in de wereld weer zien te herstellen. Maar dat is niet geheel zonder gevaar... 

PLOT

The story follows the adventures of Aang, a young successor to a long line of Avatars,
who must put his childhood ways aside and stop the Fire Nation from enslaving the Water, Earth and Air nations.
 
http://www.youtube.com/watch?v=ZMoGFeMmhKA

MM:    http://www.moviemeter.nl/film/58046

IMDB:    http://www.imdb.com/title/tt0938283/

INFO

Compressie: x264 MKV
Audio 1...: Eng 5.1
Audio 2...: DTS 
Subs......: Eng & Custom NL
Subbers...: SRT  
Bewerking: Bradje (Thanks)

PLayer

General
Complete name                    : The.Last.Airbender.2010.720P.MKV.AC3.DTS.Eng.NLSubs-DMT.mkv
Format                           : Matroska
File size                        : 4.83 GiB
Duration                         : 1h 43mn
Overall bit rate                 : 6 694 Kbps
Movie name                       : The Last Airbender (2010) 720P.X264.NL.SUBBED.Bradje
Encoded date                     : UTC 2010-11-03 07:58:25
Writing application              : mkvmerge v3.3.0 ('Language') built on Mar 24 2010 14:59:24
Writing library                  : libebml v0.8.0 + libmatroska v0.9.0

Video
ID                               : 1
Format                           : AVC
Format/Info                      : Advanced Video Codec
Format profile                   : High@L3.1
Format settings, CABAC           : Yes
Format settings, ReFrames        : 5 frames
Muxing mode                      : Container profile=Unknown@3.1
Codec ID                         : V_MPEG4/ISO/AVC
Duration                         : 1h 43mn
Bit rate                         : 4 543 Kbps
Width                            : 1 280 pixels
Height                           : 544 pixels
Display aspect ratio             : 2.35:1
Frame rate                       : 23.976 fps
Color space                      : YUV
Chroma subsampling               : 4:2:0
Bit depth                        : 8 bits
Scan type                        : Progressive
Bits/(Pixel*Frame)               : 0.272
Stream size                      : 3.18 GiB (66%)
Title                            : x264
Writing library                  : x264 core 107 r1745 4785e8e
Encoding settings                : cabac=1 / ref=5 / deblock=1:0:0 / analyse=0x3:0x113 / 
me=umh / subme=8 / psy=1 / psy_rd=1.00:0.20 / mixed_ref=1 / me_range=16 / chroma_me=1 / 
trellis=1 / 8x8dct=1 / cqm=0 / deadzone=21,11 / fast_pskip=1 / chroma_qp_offset=-3 / 
threads=12 / sliced_threads=0 / nr=0 / decimate=1 / interlaced=0 / constrained_intra=0 / 
bframes=3 / b_pyramid=2 / b_adapt=1 / b_bias=0 / direct=3 / weightb=1 / open_gop=0 / 
weightp=2 / keyint=250 / keyint_min=23 / scenecut=40 / intra_refresh=0 / rc_lookahead=40 / 
rc=2pass / mbtree=1 / bitrate=4543 / ratetol=1.0 / qcomp=0.60 / qpmin=10 / qpmax=51 / 
qpstep=4 / cplxblur=20.0 / qblur=0.5 / ip_ratio=1.40 / aq=1:1.00
Language                         : English

Audio #1
ID                               : 2
Format                           : AC-3
Format/Info                      : Audio Coding 3
Mode extension                   : CM (complete main)
Codec ID                         : A_AC3
Duration                         : 1h 43mn
Bit rate mode                    : Constant
Bit rate                         : 640 Kbps
Channel(s)                       : 6 channels
Channel positions                : Front: L C R, Side: L R, LFE
Sampling rate                    : 48.0 KHz
Bit depth                        : 16 bits
Stream size                      : 473 MiB (10%)
Title                            : AC3
Language                         : English

Audio #2
ID                               : 3
Format                           : DTS
Format/Info                      : Digital Theater Systems
Codec ID                         : A_DTS
Duration                         : 1h 43mn
Bit rate mode                    : Constant
Bit rate                         : 1 510 Kbps
Channel(s)                       : 6 channels
Channel positions                : Front: L C R, Side: L R, LFE
Sampling rate                    : 48.0 KHz
Bit depth                        : 24 bits
Stream size                      : 1.09 GiB (23%)
Title                            : DTS
Language                         : English

Text #1
ID                               : 4
Format                           : UTF-8
Codec ID                         : S_TEXT/UTF8
Codec ID/Info                    : UTF-8 Plain Text
Title                            : Subtitles
Language                         : Dutch

Text #2
ID                               : 5
Format                           : UTF-8
Codec ID                         : S_TEXT/UTF8
Codec ID/Info                    : UTF-8 Plain Text
Title                            : Subtitles
Language                         : English

Menu
00:00:00.000                     : en:00:00:00.000
00:11:45.371                     : en:00:11:45.371
00:18:07.753                     : en:00:18:07.753
00:26:34.635                     : en:00:26:34.635
00:38:04.991                     : en:00:38:04.991
00:51:10.985                     : en:00:51:10.985
00:59:56.968                     : en:00:59:56.968
01:09:05.725                     : en:01:09:05.725
01:18:46.096                     : en:01:18:46.096
01:28:10.494                     : en:01:28:10.494
01:35:03.197                     : en:01:35:03.197
